HIERARCHY
ROOT pelvis
{
	OFFSET 0.003123 -0.351407 0.012037
	CHANNELS 6 Xposition Yposition Zposition Zrotation Yrotation Xrotation 
	JOINT left_hip
	{
		OFFSET 0.058189 -0.092763 -0.026001
		CHANNELS 3 Zrotation Yrotation Xrotation
		JOINT left_knee
		{
			OFFSET 0.054695 -0.378753 -0.009396
			CHANNELS 3 Zrotation Yrotation Xrotation
			JOINT left_ankle
			{
				OFFSET -0.043453 -0.403059 -0.031876
				CHANNELS 3 Zrotation Yrotation Xrotation
				JOINT left_foot
				{
					OFFSET 0.047257 -0.057997 0.118216
					CHANNELS 3 Zrotation Yrotation Xrotation
					End Site
					{
						OFFSET 0.000000 0.000000 0.000000
					}
				}
			}
		}
	}
	JOINT right_hip
	{
		OFFSET -0.063267 -0.103908 -0.021250
		CHANNELS 3 Zrotation Yrotation Xrotation
		JOINT right_knee
		{
			OFFSET -0.044210 -0.362380 -0.016824
			CHANNELS 3 Zrotation Yrotation Xrotation
			JOINT right_ankle
			{
				OFFSET 0.015417 -0.410728 -0.020192
				CHANNELS 3 Zrotation Yrotation Xrotation
				JOINT right_foot
				{
					OFFSET -0.038812 -0.058328 0.119049
					CHANNELS 3 Zrotation Yrotation Xrotation
					End Site
					{
						OFFSET 0.000000 0.000000 0.000000
					}
				}
			}
		}
	}
	JOINT spine_1
	{
		OFFSET -0.002763 0.109891 -0.027618
		CHANNELS 3 Zrotation Yrotation Xrotation
		JOINT spine_2
		{
			OFFSET 0.009448 0.131853 -0.005940
			CHANNELS 3 Zrotation Yrotation Xrotation
			JOINT spine_3
			{
				OFFSET -0.011330 0.052235 0.028447
				CHANNELS 3 Zrotation Yrotation Xrotation
				JOINT neck
				{
					OFFSET -0.012164 0.165167 -0.031615
					CHANNELS 3 Zrotation Yrotation Xrotation
					JOINT head
					{
						OFFSET 0.024783 0.160452 0.020737
						CHANNELS 3 Zrotation Yrotation Xrotation
						End Site
						{
							OFFSET 0.000000 0.000000 0.000000
						}
					}
				}
				JOINT left_collar
				{
					OFFSET 0.046364 0.084944 -0.007220
					CHANNELS 3 Zrotation Yrotation Xrotation
					JOINT left_shoulder
					{
						OFFSET 0.119239 0.057728 -0.015461
						CHANNELS 3 Zrotation Yrotation Xrotation
						JOINT left_elbow
						{
							OFFSET 0.254123 -0.072151 -0.042459
							CHANNELS 3 Zrotation Yrotation Xrotation
							JOINT left_wrist
							{
								OFFSET 0.251987 0.023221 -0.002472
								CHANNELS 3 Zrotation Yrotation Xrotation
								JOINT left_index_1
								{
									OFFSET 0.101902 -0.008688 0.019351
									CHANNELS 3 Zrotation Yrotation Xrotation
									JOINT left_index_2
									{
										OFFSET 0.030149 -0.011154 0.001151
										CHANNELS 3 Zrotation Yrotation Xrotation
										JOINT left_index_3
										{
											OFFSET 0.006504 -0.021577 -0.002433
											CHANNELS 3 Zrotation Yrotation Xrotation
											End Site
											{
												OFFSET 0.000000 0.000000 0.000000
											}
										}
									}
								}
								JOINT left_middle_1
								{
									OFFSET 0.109398 -0.006328 -0.003981
									CHANNELS 3 Zrotation Yrotation Xrotation
									JOINT left_middle_2
									{
										OFFSET 0.026472 -0.015218 -0.004641
										CHANNELS 3 Zrotation Yrotation Xrotation
										JOINT left_middle_3
										{
											OFFSET 0.005022 -0.023347 -0.001911
											CHANNELS 3 Zrotation Yrotation Xrotation
											End Site
											{
												OFFSET 0.000000 0.000000 0.000000
											}
										}
									}
								}
								JOINT left_pinky_1
								{
									OFFSET 0.084047 -0.014539 -0.043750
									CHANNELS 3 Zrotation Yrotation Xrotation
									JOINT left_pinky_2
									{
										OFFSET 0.012124 -0.014448 -0.005375
										CHANNELS 3 Zrotation Yrotation Xrotation
										JOINT left_pinky_3
										{
											OFFSET 0.003798 -0.018853 0.000167
											CHANNELS 3 Zrotation Yrotation Xrotation
											End Site
											{
												OFFSET 0.000000 0.000000 0.000000
											}
										}
									}
								}
								JOINT left_ring_1
								{
									OFFSET 0.097444 -0.009268 -0.027345
									CHANNELS 3 Zrotation Yrotation Xrotation
									JOINT left_ring_2
									{
										OFFSET 0.023561 -0.016057 -0.001895
										CHANNELS 3 Zrotation Yrotation Xrotation
										JOINT left_ring_3
										{
											OFFSET 0.004257 -0.023548 0.000814
											CHANNELS 3 Zrotation Yrotation Xrotation
											End Site
											{
												OFFSET 0.000000 0.000000 0.000000
											}
										}
									}
								}
								JOINT left_thumb_1
								{
									OFFSET 0.040636 -0.017977 0.025611
									CHANNELS 3 Zrotation Yrotation Xrotation
									JOINT left_thumb_2
									{
										OFFSET 0.021637 -0.017639 0.011623
										CHANNELS 3 Zrotation Yrotation Xrotation
										JOINT left_thumb_3
										{
											OFFSET 0.024002 -0.008356 0.006548
											CHANNELS 3 Zrotation Yrotation Xrotation
											End Site
											{
												OFFSET 0.000000 0.000000 0.000000
											}
										}
									}
								}
							}
						}
					}
				}
				JOINT right_collar
				{
					OFFSET -0.047695 0.084339 -0.013400
					CHANNELS 3 Zrotation Yrotation Xrotation
					JOINT right_shoulder
					{
						OFFSET -0.102578 0.053524 -0.012669
						CHANNELS 3 Zrotation Yrotation Xrotation
						JOINT right_elbow
						{
							OFFSET -0.271150 -0.036492 -0.026467
							CHANNELS 3 Zrotation Yrotation Xrotation
							JOINT right_wrist
							{
								OFFSET -0.249267 -0.004533 -0.015325
								CHANNELS 3 Zrotation Yrotation Xrotation
								JOINT right_index_1
								{
									OFFSET -0.099881 -0.011783 0.019600
									CHANNELS 3 Zrotation Yrotation Xrotation
									JOINT right_index_2
									{
										OFFSET -0.030148 -0.011154 0.001151
										CHANNELS 3 Zrotation Yrotation Xrotation
										JOINT right_index_3
										{
											OFFSET -0.006505 -0.021577 -0.002432
											CHANNELS 3 Zrotation Yrotation Xrotation
											End Site
											{
												OFFSET 0.000000 0.000000 0.000000
											}
										}
									}
								}
								JOINT right_middle_1
								{
									OFFSET -0.107376 -0.009422 -0.003734
									CHANNELS 3 Zrotation Yrotation Xrotation
									JOINT right_middle_2
									{
										OFFSET -0.026472 -0.015218 -0.004641
										CHANNELS 3 Zrotation Yrotation Xrotation
										JOINT right_middle_3
										{
											OFFSET -0.005022 -0.023347 -0.001911
											CHANNELS 3 Zrotation Yrotation Xrotation
											End Site
											{
												OFFSET 0.000000 0.000000 0.000000
											}
										}
									}
								}
								JOINT right_pinky_1
								{
									OFFSET -0.082027 -0.017634 -0.043503
									CHANNELS 3 Zrotation Yrotation Xrotation
									JOINT right_pinky_2
									{
										OFFSET -0.012123 -0.014448 -0.005374
										CHANNELS 3 Zrotation Yrotation Xrotation
										JOINT right_pinky_3
										{
											OFFSET -0.003798 -0.018852 0.000167
											CHANNELS 3 Zrotation Yrotation Xrotation
											End Site
											{
												OFFSET 0.000000 0.000000 0.000000
											}
										}
									}
								}
								JOINT right_ring_1
								{
									OFFSET -0.095423 -0.012362 -0.027099
									CHANNELS 3 Zrotation Yrotation Xrotation
									JOINT right_ring_2
									{
										OFFSET -0.023561 -0.016057 -0.001895
										CHANNELS 3 Zrotation Yrotation Xrotation
										JOINT right_ring_3
										{
											OFFSET -0.004257 -0.023548 0.000816
											CHANNELS 3 Zrotation Yrotation Xrotation
											End Site
											{
												OFFSET 0.000000 0.000000 0.000000
											}
										}
									}
								}
								JOINT right_thumb_1
								{
									OFFSET -0.038613 -0.021074 0.025861
									CHANNELS 3 Zrotation Yrotation Xrotation
									JOINT right_thumb_2
									{
										OFFSET -0.021636 -0.017639 0.011623
										CHANNELS 3 Zrotation Yrotation Xrotation
										JOINT right_thumb_3
										{
											OFFSET -0.024004 -0.008353 0.006547
											CHANNELS 3 Zrotation Yrotation Xrotation
											End Site
											{
												OFFSET 0.000000 0.000000 0.000000
											}
										}
									}
								}
							}
						}
					}
				}
			}
		}
	}
}
MOTION
Frames: 7
Frame Time: 0.050000
0.556885 0.929497 0.358936 -143.641424 -76.792583 129.321249 -1.394301 2.205953 -10.862527 24.311808 2.318861 24.480616 -69.043085 -21.953478 20.969878 0.000000 0.000000 0.000000 16.336319 1.877910 19.911965 3.900319 2.387820 -2.453650 -44.916382 -14.341597 35.333513 0.000000 0.000000 0.000000 -1.423807 -0.542286 13.772164 6.237872 -0.912272 -23.247611 -13.465787 -37.404488 36.354356 -2.162191 4.744077 6.241844 0.000000 0.000000 0.000000 5.163104 7.987293 22.729660 -99.590442 -67.868087 105.424821 77.859203 -37.433010 -16.894790 17.475116 -14.720767 -64.023108 178.684424 33.451488 165.783389 -86.646417 35.481208 -1.079718 0.000000 0.000000 0.000000 -114.294115 -3.923321 2.614471 28.141344 29.797157 -68.480690 0.000000 0.000000 0.000000 -84.723906 -60.007932 -11.404740 26.276399 0.622565 15.936279 0.000000 0.000000 0.000000 -113.157417 -44.619147 33.575542 41.390505 4.518982 -17.316038 0.000000 0.000000 0.000000 52.986511 -46.838095 -14.022666 132.200690 83.775811 -117.452009 0.000000 0.000000 0.000000 -13.710921 15.219121 -4.640066 52.855127 32.534787 -37.087935 153.261539 49.276826 101.738947 0.949976 4.555303 6.075775 42.662912 -9.182256 1.771290 58.334070 -2.972955 -1.436272 0.000000 0.000000 0.000000 69.541094 35.690108 -3.246514 30.832309 -16.609332 29.233566 0.000000 0.000000 0.000000 14.424901 64.289846 -79.977971 -1.236005 -5.965380 27.470379 0.000000 0.000000 0.000000 56.414691 61.001070 -9.066245 18.206410 -3.081384 11.025233 0.000000 0.000000 0.000000 -17.308524 -35.254003 25.791347 -17.504244 32.307710 -26.170553 0.000000 0.000000 0.000000 
0.556885 0.929980 0.364216 -157.255555 -70.502659 142.127197 3.077711 3.626681 -7.556731 18.282355 3.502442 23.280065 -71.883474 -18.705520 18.127666 0.000000 0.000000 0.000000 17.135098 3.424927 22.816307 1.220462 2.262641 -4.538313 -41.622646 -12.517301 30.551899 0.000000 0.000000 0.000000 -3.596497 0.685345 9.495696 9.072368 1.714551 -18.573103 -11.561172 -35.677057 35.342423 -0.410472 6.394091 9.936117 0.000000 0.000000 0.000000 3.293139 8.327638 23.300398 -88.600038 -71.816319 94.499556 76.164782 -39.345698 -15.408602 20.535409 -11.904050 -63.521810 -42.826672 22.078240 -23.185010 -92.196357 22.553128 1.508328 0.000000 0.000000 0.000000 -72.583368 -16.519124 10.500097 -29.550736 -20.580447 -47.846898 0.000000 0.000000 0.000000 -35.120925 -40.585904 -25.340170 -3.986631 -3.176057 -7.338749 0.000000 0.000000 0.000000 -60.163767 -38.764755 11.018578 7.263879 -20.224787 -50.594216 0.000000 0.000000 0.000000 51.387270 -8.010154 -9.766330 -62.080918 49.309735 38.575058 0.000000 0.000000 0.000000 -12.376038 15.213029 -5.289064 45.628233 35.620309 -33.441972 152.093966 58.011650 103.851837 3.355230 10.491839 4.535239 24.303576 9.012142 0.964648 14.239878 -0.775776 -2.452819 0.000000 0.000000 0.000000 29.801922 32.756332 -11.818533 22.786105 4.160945 -11.631612 0.000000 0.000000 0.000000 -10.043866 40.324357 -68.798757 24.249557 -2.388853 5.758893 0.000000 0.000000 0.000000 23.977722 46.457190 -21.115982 5.730854 3.702481 -10.136867 0.000000 0.000000 0.000000 -15.833761 -19.346161 7.656612 7.513444 13.333280 -3.119078 0.000000 0.000000 0.000000 
0.556885 0.929497 0.366856 -156.918532 -71.769625 143.439281 1.927284 3.555496 -9.523328 18.371393 2.487993 21.539249 -75.588335 -12.461815 23.516516 0.000000 0.000000 0.000000 15.509104 2.703197 20.582822 2.112961 2.513955 -4.225032 -42.092112 -12.468661 30.208660 0.000000 0.000000 0.000000 -4.333040 1.065246 8.527811 9.509927 1.506538 -19.365944 -10.045174 -35.838843 34.104866 -0.038269 5.955372 9.788203 0.000000 0.000000 0.000000 2.167372 9.051672 21.606373 -89.188457 -68.967615 90.712322 77.748069 -43.998602 -19.773386 17.800488 -12.496378 -61.867175 -75.266001 33.202784 -66.560971 -92.583613 21.301936 10.436597 0.000000 0.000000 0.000000 -79.956285 -15.064734 12.325622 -15.470370 -13.061750 -63.079710 0.000000 0.000000 0.000000 -32.382252 -44.040153 -29.742629 1.021289 -5.182403 -13.151346 0.000000 0.000000 0.000000 -62.717675 -44.227638 11.385393 16.470221 -10.949606 -46.886600 0.000000 0.000000 0.000000 54.651476 -27.333430 -15.849073 -68.402788 80.066906 44.666805 0.000000 0.000000 0.000000 -12.704452 12.092222 -7.100596 46.027666 33.442119 -32.900262 152.571997 58.047621 103.861911 1.505963 8.396467 2.249446 26.598809 7.042143 1.774019 12.470563 2.615423 -17.430183 0.000000 0.000000 0.000000 36.747181 28.096362 -8.722609 10.914773 5.003077 -17.727727 0.000000 0.000000 0.000000 -12.570221 34.225773 -59.565400 23.363148 -0.266855 1.316523 0.000000 0.000000 0.000000 19.660315 42.868388 -20.899037 6.917864 4.336054 -10.977003 0.000000 0.000000 0.000000 -13.434992 -21.853309 10.463198 1.441583 18.274231 -7.123802 0.000000 0.000000 0.000000 
0.553116 0.929497 0.362896 -155.830080 -72.432664 141.666538 1.509267 3.087500 -8.593245 19.454391 1.753598 20.123026 -80.155256 -4.989699 27.330800 0.000000 0.000000 0.000000 15.053617 2.750723 20.797014 3.722384 2.644058 -2.949900 -42.742862 -12.936132 30.926904 0.000000 0.000000 0.000000 -3.860423 0.695206 10.010917 9.809645 1.527873 -19.736546 -10.905186 -35.816388 33.686564 -1.274911 5.407743 8.377462 0.000000 0.000000 0.000000 2.967110 9.358432 18.136206 -73.749262 -63.797701 70.764154 83.695669 -51.952841 -25.646083 15.737752 -10.225226 -53.937367 -20.258123 9.682210 -3.615702 -91.456759 -3.779766 -16.620487 0.000000 0.000000 0.000000 -47.733913 -22.075893 3.386701 -18.918449 -19.365706 -57.304333 0.000000 0.000000 0.000000 -2.964209 -38.886198 -47.051363 5.189682 -1.998411 -5.361970 0.000000 0.000000 0.000000 -32.891040 -40.067971 -5.746422 13.306099 -12.646142 -46.376686 0.000000 0.000000 0.000000 44.805323 -2.064337 -12.226254 -51.104890 40.800700 32.897424 0.000000 0.000000 0.000000 -13.534486 12.956133 -3.867178 40.839470 35.558523 -31.130323 164.073448 59.890088 116.916871 -1.509001 9.338454 -0.554985 26.175052 3.553905 2.240998 7.623838 -1.735059 -4.581991 0.000000 0.000000 0.000000 31.999549 26.852509 -8.473997 28.889759 1.865051 -4.774991 0.000000 0.000000 0.000000 -17.477402 26.024698 -52.743648 32.663368 15.081451 -19.514981 0.000000 0.000000 0.000000 21.478938 34.317449 -16.033882 15.049540 12.710017 -24.629189 0.000000 0.000000 0.000000 -8.935292 -18.848679 7.097161 1.437380 7.678849 -3.999329 0.000000 0.000000 0.000000 
0.553116 0.929658 0.362236 -154.484138 -72.109345 140.347058 2.298407 3.360205 -8.403307 19.131725 1.680126 19.824835 -80.285364 -1.284783 29.459706 0.000000 0.000000 0.000000 16.615640 2.425286 20.454039 2.029676 1.997015 -2.202383 -42.424720 -12.707239 30.626003 0.000000 0.000000 0.000000 -3.545250 0.575002 9.936462 9.482645 1.444422 -19.784548 -11.066751 -36.918287 35.421538 -1.110326 4.879609 6.766133 0.000000 0.000000 0.000000 3.310760 10.849352 16.946926 -67.094260 -61.585544 63.708512 87.446662 -53.577965 -26.781633 19.034591 -10.835818 -50.803570 -5.534104 0.944164 0.594369 -57.432024 -23.451431 -26.633373 0.000000 0.000000 0.000000 -30.860840 -25.329290 -2.445806 -7.219327 -10.948722 -58.176674 0.000000 0.000000 0.000000 3.565618 -37.189927 -50.390266 8.614625 -0.710831 -2.043271 0.000000 0.000000 0.000000 -21.011831 -40.069674 -12.025280 20.614170 -4.693522 -35.615616 0.000000 0.000000 0.000000 35.278431 8.604988 -9.036346 -33.619834 5.560357 12.107762 0.000000 0.000000 0.000000 -13.584938 13.564311 -4.395484 35.518846 38.672457 -30.135547 172.353909 64.166345 129.381522 -0.149529 12.963971 -6.312608 28.503650 -0.554468 2.706978 23.262435 0.159779 -16.365807 0.000000 0.000000 0.000000 38.351991 24.312410 -6.485338 33.606239 10.445950 -18.805255 0.000000 0.000000 0.000000 -4.948820 31.485272 -61.465471 29.161932 18.178737 -20.041771 0.000000 0.000000 0.000000 23.411850 36.598981 -16.765423 32.697109 20.322608 -23.580504 0.000000 0.000000 0.000000 -14.960939 -25.444689 8.842638 7.457220 19.269991 -7.492374 0.000000 0.000000 0.000000 
0.556885 0.930464 0.363556 -150.969389 -73.277230 136.904182 2.614306 3.491381 -8.925680 18.740073 1.486532 19.616401 -78.371217 0.589032 32.110849 0.000000 0.000000 0.000000 16.586165 2.326641 20.386300 2.933714 2.359570 -2.993937 -42.498331 -13.318328 32.142823 0.000000 0.000000 0.000000 -3.990360 0.596507 11.509840 10.760020 1.627957 -21.049735 -10.521915 -36.319948 33.851220 -1.046044 4.286585 6.306646 0.000000 0.000000 0.000000 2.550165 9.381038 17.314614 -58.135889 -60.608617 52.256481 90.668785 -58.971477 -31.643894 20.991809 -10.794535 -46.752803 1.299525 4.219572 0.883727 -33.568648 -19.400432 -38.593858 0.000000 0.000000 0.000000 -19.932353 -24.137645 -6.597726 -7.231667 -7.058860 -47.435643 0.000000 0.000000 0.000000 8.819490 -37.290800 -55.151542 13.828388 0.426065 2.582649 0.000000 0.000000 0.000000 -13.727442 -40.645611 -17.072232 24.157852 -1.164880 -26.360812 0.000000 0.000000 0.000000 37.378967 18.582131 -5.307254 -29.451040 -3.697565 5.948706 0.000000 0.000000 0.000000 -12.465832 13.358163 -4.501718 33.389932 36.456405 -26.836426 -177.036823 63.685607 142.605265 -1.744019 10.069178 -7.393579 23.592855 6.561141 2.453933 8.464143 -3.547744 -18.737771 0.000000 0.000000 0.000000 26.684875 28.905033 -8.949687 36.447814 5.597462 -8.962331 0.000000 0.000000 0.000000 -15.144993 19.303772 -48.505222 31.985424 30.597278 -36.782422 0.000000 0.000000 0.000000 15.938254 35.544953 -19.056636 27.855547 19.227275 -25.179529 0.000000 0.000000 0.000000 -13.655123 -17.379050 1.502788 13.558304 10.220215 -2.095045 0.000000 0.000000 0.000000 
0.556885 0.930786 0.366856 -153.385716 -72.310456 138.949818 2.921738 3.473247 -7.945098 17.690007 1.576048 19.016885 -77.760806 0.160428 30.950164 0.000000 0.000000 0.000000 15.990471 2.618879 20.676294 3.222738 2.417488 -2.679570 -42.138416 -12.931123 31.361611 0.000000 0.000000 0.000000 -4.446631 0.821384 11.596095 10.756114 1.814252 -20.660936 -10.995804 -35.159135 35.471553 -0.285534 3.988357 5.959659 0.000000 0.000000 0.000000 2.575156 10.503238 14.843039 -55.669787 -59.864411 50.234752 90.270439 -60.213169 -31.633405 20.904842 -10.628363 -43.532872 4.961472 1.047740 0.738787 -12.595007 -8.739324 -37.911308 0.000000 0.000000 0.000000 -14.250857 -24.878263 -8.232154 2.426074 -2.754263 -49.552180 0.000000 0.000000 0.000000 11.627308 -35.608952 -53.960280 17.116265 0.642471 4.765248 0.000000 0.000000 0.000000 -9.302768 -38.148461 -18.262543 25.507399 0.348240 -24.346544 0.000000 0.000000 0.000000 39.621274 20.502294 -2.826909 -29.313869 -6.950066 6.035890 0.000000 0.000000 0.000000 -11.246720 14.152597 -5.841585 31.877390 36.413199 -25.524290 -168.515946 64.899516 156.430386 -3.255060 13.244543 -10.584748 21.493824 9.744592 2.458094 10.154699 -3.144221 -10.030412 0.000000 0.000000 0.000000 27.313608 27.426247 -7.836926 40.900276 7.939718 -10.539242 0.000000 0.000000 0.000000 -7.126429 16.632376 -37.913536 56.196290 34.530371 -30.291789 0.000000 0.000000 0.000000 24.935756 29.213921 -12.272149 31.352334 23.065758 -25.709075 0.000000 0.000000 0.000000 -12.798687 -15.414154 -0.108922 13.078618 6.014052 -1.032882 0.000000 0.000000 0.000000 
